<mxfile host="Electron" modified="2023-10-31T17:31:13.526Z" agent="Mozilla/5.0 (Windows NT 10.0; Win64; x64) AppleWebKit/537.36 (KHTML, like Gecko) draw.io/22.0.3 Chrome/114.0.5735.289 Electron/25.8.4 Safari/537.36" etag="EfPcXIiokT3b4wyrSSRp" version="22.0.3" type="device">
  <diagram name="Page-1" id="26LcqoKIbVZz4ytmPdBD">
    <mxGraphModel dx="1727" dy="1010" grid="1" gridSize="10" guides="1" tooltips="1" connect="1" arrows="1" fold="1" page="1" pageScale="1" pageWidth="850" pageHeight="1100" math="0" shadow="0">
      <root>
        <mxCell id="0" />
        <mxCell id="1" parent="0" />
        <mxCell id="ynXd6DMi-HEMfMiKVoHw-1" value="Landing Page" style="ellipse;whiteSpace=wrap;html=1;" vertex="1" parent="1">
          <mxGeometry x="366" y="120" width="120" height="80" as="geometry" />
        </mxCell>
        <mxCell id="ynXd6DMi-HEMfMiKVoHw-2" value="Select &lt;br&gt;YouTube Transcipt" style="ellipse;whiteSpace=wrap;html=1;" vertex="1" parent="1">
          <mxGeometry x="366" y="240" width="120" height="80" as="geometry" />
        </mxCell>
        <mxCell id="ynXd6DMi-HEMfMiKVoHw-3" value="Enter the YouTube Video Link&amp;nbsp;" style="ellipse;whiteSpace=wrap;html=1;" vertex="1" parent="1">
          <mxGeometry x="366" y="360" width="120" height="80" as="geometry" />
        </mxCell>
        <mxCell id="ynXd6DMi-HEMfMiKVoHw-4" value="Call the &lt;br&gt;YouTube API" style="ellipse;whiteSpace=wrap;html=1;" vertex="1" parent="1">
          <mxGeometry x="366" y="480" width="120" height="80" as="geometry" />
        </mxCell>
        <mxCell id="ynXd6DMi-HEMfMiKVoHw-5" value="Check Whether the Video Having Transcript" style="ellipse;whiteSpace=wrap;html=1;" vertex="1" parent="1">
          <mxGeometry x="366" y="600" width="120" height="80" as="geometry" />
        </mxCell>
        <mxCell id="ynXd6DMi-HEMfMiKVoHw-6" value="&lt;span style=&quot;color: rgb(0, 0, 0); font-family: Helvetica; font-size: 12px; font-style: normal; font-variant-ligatures: normal; font-variant-caps: normal; font-weight: 400; letter-spacing: normal; orphans: 2; text-align: center; text-indent: 0px; text-transform: none; widows: 2; word-spacing: 0px; -webkit-text-stroke-width: 0px; background-color: rgb(251, 251, 251); text-decoration-thickness: initial; text-decoration-style: initial; text-decoration-color: initial; float: none; display: inline !important;&quot;&gt;Fetch the Transcript Using ML&lt;/span&gt;" style="ellipse;whiteSpace=wrap;html=1;" vertex="1" parent="1">
          <mxGeometry x="366" y="720" width="120" height="80" as="geometry" />
        </mxCell>
        <mxCell id="ynXd6DMi-HEMfMiKVoHw-7" value="Display &lt;br&gt;Transcipt" style="ellipse;whiteSpace=wrap;html=1;" vertex="1" parent="1">
          <mxGeometry x="366" y="840" width="120" height="80" as="geometry" />
        </mxCell>
        <mxCell id="ynXd6DMi-HEMfMiKVoHw-8" value="" style="swimlane;startSize=0;" vertex="1" parent="1">
          <mxGeometry x="206" y="10" width="440" height="950" as="geometry" />
        </mxCell>
        <mxCell id="ynXd6DMi-HEMfMiKVoHw-9" value="System" style="text;html=1;strokeColor=none;fillColor=none;align=center;verticalAlign=middle;whiteSpace=wrap;rounded=0;fontSize=18;" vertex="1" parent="ynXd6DMi-HEMfMiKVoHw-8">
          <mxGeometry x="190" y="30" width="60" height="30" as="geometry" />
        </mxCell>
        <mxCell id="ynXd6DMi-HEMfMiKVoHw-23" value="" style="endArrow=none;html=1;rounded=0;entryX=0;entryY=0.3333333333333333;entryDx=0;entryDy=0;entryPerimeter=0;" edge="1" parent="ynXd6DMi-HEMfMiKVoHw-8" target="ynXd6DMi-HEMfMiKVoHw-11">
          <mxGeometry width="50" height="50" relative="1" as="geometry">
            <mxPoint x="280" y="150" as="sourcePoint" />
            <mxPoint x="330" y="100" as="targetPoint" />
          </mxGeometry>
        </mxCell>
        <mxCell id="ynXd6DMi-HEMfMiKVoHw-11" value="&lt;font style=&quot;font-size: 18px;&quot;&gt;Admin&lt;/font&gt;" style="shape=umlActor;verticalLabelPosition=bottom;verticalAlign=top;html=1;outlineConnect=0;" vertex="1" parent="1">
          <mxGeometry x="766" y="390" width="70" height="130" as="geometry" />
        </mxCell>
        <mxCell id="ynXd6DMi-HEMfMiKVoHw-14" value="&lt;font style=&quot;font-size: 18px;&quot;&gt;User&lt;/font&gt;" style="shape=umlActor;verticalLabelPosition=bottom;verticalAlign=top;html=1;outlineConnect=0;" vertex="1" parent="1">
          <mxGeometry x="16" y="390" width="70" height="130" as="geometry" />
        </mxCell>
        <mxCell id="ynXd6DMi-HEMfMiKVoHw-15" value="" style="endArrow=none;html=1;rounded=0;exitX=1;exitY=0.3333333333333333;exitDx=0;exitDy=0;exitPerimeter=0;entryX=0;entryY=0.5;entryDx=0;entryDy=0;" edge="1" parent="1" source="ynXd6DMi-HEMfMiKVoHw-14" target="ynXd6DMi-HEMfMiKVoHw-1">
          <mxGeometry width="50" height="50" relative="1" as="geometry">
            <mxPoint x="86" y="440" as="sourcePoint" />
            <mxPoint x="136" y="390" as="targetPoint" />
          </mxGeometry>
        </mxCell>
        <mxCell id="ynXd6DMi-HEMfMiKVoHw-16" value="" style="endArrow=none;html=1;rounded=0;entryX=0;entryY=0.5;entryDx=0;entryDy=0;exitX=1;exitY=0.3333333333333333;exitDx=0;exitDy=0;exitPerimeter=0;" edge="1" parent="1" source="ynXd6DMi-HEMfMiKVoHw-14" target="ynXd6DMi-HEMfMiKVoHw-2">
          <mxGeometry width="50" height="50" relative="1" as="geometry">
            <mxPoint x="86" y="430" as="sourcePoint" />
            <mxPoint x="376" y="170" as="targetPoint" />
          </mxGeometry>
        </mxCell>
        <mxCell id="ynXd6DMi-HEMfMiKVoHw-17" value="" style="endArrow=none;html=1;rounded=0;entryX=0;entryY=0.5;entryDx=0;entryDy=0;exitX=1;exitY=0.3333333333333333;exitDx=0;exitDy=0;exitPerimeter=0;" edge="1" parent="1" source="ynXd6DMi-HEMfMiKVoHw-14" target="ynXd6DMi-HEMfMiKVoHw-3">
          <mxGeometry width="50" height="50" relative="1" as="geometry">
            <mxPoint x="96" y="440" as="sourcePoint" />
            <mxPoint x="376" y="290" as="targetPoint" />
          </mxGeometry>
        </mxCell>
        <mxCell id="ynXd6DMi-HEMfMiKVoHw-18" value="" style="endArrow=none;html=1;rounded=0;entryX=0;entryY=0.5;entryDx=0;entryDy=0;exitX=1;exitY=0.3333333333333333;exitDx=0;exitDy=0;exitPerimeter=0;" edge="1" parent="1" source="ynXd6DMi-HEMfMiKVoHw-14" target="ynXd6DMi-HEMfMiKVoHw-4">
          <mxGeometry width="50" height="50" relative="1" as="geometry">
            <mxPoint x="86" y="430" as="sourcePoint" />
            <mxPoint x="376" y="410" as="targetPoint" />
          </mxGeometry>
        </mxCell>
        <mxCell id="ynXd6DMi-HEMfMiKVoHw-19" value="" style="endArrow=none;html=1;rounded=0;entryX=0;entryY=0.5;entryDx=0;entryDy=0;exitX=1;exitY=0.3333333333333333;exitDx=0;exitDy=0;exitPerimeter=0;" edge="1" parent="1" source="ynXd6DMi-HEMfMiKVoHw-14" target="ynXd6DMi-HEMfMiKVoHw-5">
          <mxGeometry width="50" height="50" relative="1" as="geometry">
            <mxPoint x="106" y="453" as="sourcePoint" />
            <mxPoint x="386" y="420" as="targetPoint" />
          </mxGeometry>
        </mxCell>
        <mxCell id="ynXd6DMi-HEMfMiKVoHw-20" value="" style="endArrow=none;html=1;rounded=0;entryX=0;entryY=0.5;entryDx=0;entryDy=0;exitX=1;exitY=0.3333333333333333;exitDx=0;exitDy=0;exitPerimeter=0;" edge="1" parent="1" source="ynXd6DMi-HEMfMiKVoHw-14" target="ynXd6DMi-HEMfMiKVoHw-6">
          <mxGeometry width="50" height="50" relative="1" as="geometry">
            <mxPoint x="116" y="463" as="sourcePoint" />
            <mxPoint x="396" y="430" as="targetPoint" />
          </mxGeometry>
        </mxCell>
        <mxCell id="ynXd6DMi-HEMfMiKVoHw-21" value="" style="endArrow=none;html=1;rounded=0;entryX=0;entryY=0.5;entryDx=0;entryDy=0;exitX=1;exitY=0.3333333333333333;exitDx=0;exitDy=0;exitPerimeter=0;" edge="1" parent="1" source="ynXd6DMi-HEMfMiKVoHw-14" target="ynXd6DMi-HEMfMiKVoHw-7">
          <mxGeometry width="50" height="50" relative="1" as="geometry">
            <mxPoint x="96" y="443" as="sourcePoint" />
            <mxPoint x="376" y="770" as="targetPoint" />
          </mxGeometry>
        </mxCell>
        <mxCell id="ynXd6DMi-HEMfMiKVoHw-25" value="" style="endArrow=none;html=1;rounded=0;entryX=0;entryY=0.3333333333333333;entryDx=0;entryDy=0;entryPerimeter=0;exitX=1;exitY=0.5;exitDx=0;exitDy=0;" edge="1" parent="1" source="ynXd6DMi-HEMfMiKVoHw-2" target="ynXd6DMi-HEMfMiKVoHw-11">
          <mxGeometry width="50" height="50" relative="1" as="geometry">
            <mxPoint x="496" y="170" as="sourcePoint" />
            <mxPoint x="776" y="443" as="targetPoint" />
          </mxGeometry>
        </mxCell>
        <mxCell id="ynXd6DMi-HEMfMiKVoHw-26" value="" style="endArrow=none;html=1;rounded=0;entryX=0;entryY=0.3333333333333333;entryDx=0;entryDy=0;entryPerimeter=0;exitX=1;exitY=0.5;exitDx=0;exitDy=0;" edge="1" parent="1" source="ynXd6DMi-HEMfMiKVoHw-4" target="ynXd6DMi-HEMfMiKVoHw-11">
          <mxGeometry width="50" height="50" relative="1" as="geometry">
            <mxPoint x="496" y="290" as="sourcePoint" />
            <mxPoint x="776" y="443" as="targetPoint" />
          </mxGeometry>
        </mxCell>
        <mxCell id="ynXd6DMi-HEMfMiKVoHw-27" value="" style="endArrow=none;html=1;rounded=0;entryX=0;entryY=0.3333333333333333;entryDx=0;entryDy=0;entryPerimeter=0;exitX=1;exitY=0.5;exitDx=0;exitDy=0;" edge="1" parent="1" source="ynXd6DMi-HEMfMiKVoHw-5" target="ynXd6DMi-HEMfMiKVoHw-11">
          <mxGeometry width="50" height="50" relative="1" as="geometry">
            <mxPoint x="506" y="300" as="sourcePoint" />
            <mxPoint x="786" y="453" as="targetPoint" />
          </mxGeometry>
        </mxCell>
        <mxCell id="ynXd6DMi-HEMfMiKVoHw-28" value="" style="endArrow=none;html=1;rounded=0;entryX=0;entryY=0.3333333333333333;entryDx=0;entryDy=0;entryPerimeter=0;exitX=1;exitY=0.5;exitDx=0;exitDy=0;" edge="1" parent="1" source="ynXd6DMi-HEMfMiKVoHw-6" target="ynXd6DMi-HEMfMiKVoHw-11">
          <mxGeometry width="50" height="50" relative="1" as="geometry">
            <mxPoint x="516" y="310" as="sourcePoint" />
            <mxPoint x="796" y="463" as="targetPoint" />
          </mxGeometry>
        </mxCell>
        <mxCell id="ynXd6DMi-HEMfMiKVoHw-29" value="" style="endArrow=none;html=1;rounded=0;entryX=0;entryY=0.3333333333333333;entryDx=0;entryDy=0;entryPerimeter=0;exitX=1;exitY=0.5;exitDx=0;exitDy=0;" edge="1" parent="1" source="ynXd6DMi-HEMfMiKVoHw-7" target="ynXd6DMi-HEMfMiKVoHw-11">
          <mxGeometry width="50" height="50" relative="1" as="geometry">
            <mxPoint x="526" y="320" as="sourcePoint" />
            <mxPoint x="806" y="473" as="targetPoint" />
          </mxGeometry>
        </mxCell>
        <mxCell id="ynXd6DMi-HEMfMiKVoHw-30" value="" style="endArrow=none;html=1;rounded=0;entryX=0;entryY=0.3333333333333333;entryDx=0;entryDy=0;entryPerimeter=0;exitX=1;exitY=0.5;exitDx=0;exitDy=0;" edge="1" parent="1" source="ynXd6DMi-HEMfMiKVoHw-3" target="ynXd6DMi-HEMfMiKVoHw-11">
          <mxGeometry width="50" height="50" relative="1" as="geometry">
            <mxPoint x="496" y="530" as="sourcePoint" />
            <mxPoint x="786" y="453" as="targetPoint" />
          </mxGeometry>
        </mxCell>
      </root>
    </mxGraphModel>
  </diagram>
</mxfile>
